<?xml version="1.0" encoding="utf-8"?>
<!-- Generator: Adobe Illustrator 28.2.0, SVG Export Plug-In . SVG Version: 6.00 Build 0)  -->
<svg version="1.1" id="Layer_1" xmlns="http://www.w3.org/2000/svg" xmlns:xlink="http://www.w3.org/1999/xlink" x="0px" y="0px"
	 viewBox="0 0 30 30" style="enable-background:new 0 0 30 30;" xml:space="preserve">
<style type="text/css">
	.st0{fill:#3B82F6;}
</style>
<path class="st0" d="M12.4,12.6c-0.9,0-1.5,0.8-1.5,1.7s0.7,1.7,1.5,1.7c0.9,0,1.5-0.8,1.5-1.7C13.9,13.3,13.2,12.6,12.4,12.6z
	 M17.8,12.6c-0.9,0-1.5,0.8-1.5,1.7s0.7,1.7,1.5,1.7c0.9,0,1.5-0.8,1.5-1.7S18.7,12.6,17.8,12.6z"/>
<path class="st0" d="M25.1,0H5C3.3,0,2,1.4,2,3.1v20.3c0,1.7,1.4,3.1,3.1,3.1h17l-0.8-2.8l1.9,1.8l1.8,1.7l3.2,2.9V3.1
	C28.2,1.4,26.8,0,25.1,0z M19.3,19.6c0,0-0.5-0.6-1-1.2c2-0.6,2.7-1.8,2.7-1.8c-0.6,0.4-1.2,0.7-1.7,0.9c-0.8,0.3-1.5,0.5-2.2,0.6
	c-1.4,0.3-2.8,0.2-3.9,0c-0.9-0.2-1.6-0.4-2.2-0.6c-0.3-0.1-0.7-0.3-1.1-0.5c0,0-0.1,0-0.1-0.1c0,0,0,0-0.1,0
	c-0.3-0.1-0.4-0.3-0.4-0.3s0.7,1.2,2.6,1.8c-0.4,0.6-1,1.2-1,1.2c-3.3-0.1-4.6-2.3-4.6-2.3c0-4.8,2.2-8.7,2.2-8.7
	C10.7,6.9,12.8,7,12.8,7l0.2,0.2c-2.7,0.8-3.9,2-3.9,2S9.3,9,9.9,8.7c1.6-0.7,2.9-0.9,3.4-0.9c0.1,0,0.2,0,0.3,0
	c0.9-0.1,1.9-0.2,3,0c1.4,0.2,3,0.6,4.5,1.4c0,0-1.2-1.1-3.7-1.9L17.5,7c0,0,2.1,0,4.2,1.6c0,0,2.2,3.9,2.2,8.7
	C23.9,17.3,22.6,19.5,19.3,19.6L19.3,19.6z"/>
</svg>
