<?xml version="1.0" encoding="utf-8"?>
<!-- Generator: Adobe Illustrator 28.2.0, SVG Export Plug-In . SVG Version: 6.00 Build 0)  -->
<svg version="1.1" id="Layer_1" xmlns="http://www.w3.org/2000/svg" xmlns:xlink="http://www.w3.org/1999/xlink" x="0px" y="0px"
	 viewBox="0 0 40 20" style="enable-background:new 0 0 40 20;" xml:space="preserve">
<style type="text/css">
	.st0{fill:#3B82F6;}
	.st1{fill:none;stroke:#3B82F6;}
</style>
<path class="st0" d="M14.9,13.1c0.9,0,1.7-0.3,2.2-0.7V9.9h-2.4v1h1.3v0.8c-0.4,0.2-0.7,0.3-1.1,0.3c-1.1,0-1.7-0.8-1.7-1.9
	c0-1.2,0.7-1.9,1.7-1.9c0.6,0,1.1,0.2,1.5,0.6l0.8-0.7c-0.6-0.6-1.4-1-2.3-1c-1.8,0-2.8,1.3-2.8,2.9C12.1,12,13.3,13.1,14.9,13.1z
	 M18.3,13h1.1v-1.9h0.9c1.2,0,2.1-0.6,2.1-1.8c0-1.1-0.6-1.9-2-1.9h-2.1V13z M19.4,10.1V8.3h0.8c0.6,0,1,0.3,1,0.9
	c0,0.5-0.3,0.9-1,0.9H19.4z M25.5,13.1c1.5,0,2.3-0.9,2.3-2.4V7.3h-1.1v3.3c0,0.9-0.5,1.4-1.2,1.4c-0.8,0-1.2-0.6-1.2-1.4V7.3h-1.1
	v3.3C23.2,12.2,24.1,13.1,25.5,13.1z"/>
<rect x="0.5" y="0.5" class="st1" width="39" height="19"/>
</svg>
