<?xml version="1.0" encoding="utf-8"?>
<!-- Generator: Adobe Illustrator 28.2.0, SVG Export Plug-In . SVG Version: 6.00 Build 0)  -->
<svg version="1.1" id="Layer_1" xmlns="http://www.w3.org/2000/svg" xmlns:xlink="http://www.w3.org/1999/xlink" x="0px" y="0px"
	 viewBox="0 0 800 800" style="enable-background:new 0 0 800 800;" xml:space="preserve">
<style type="text/css">
	.st0{fill:#3B82F6;}
</style>
<path class="st0" d="M796,298.3c-25.8-136.2-162-153.1-162-153.1h-610c-20.1,0-22.6,26.6-22.6,26.6s-2.7,244.1-0.7,394.1
	c5.5,80.8,86.2,89.1,86.2,89.1s275.6-0.8,398.9-1.6c81.3-14.2,89.4-85.5,88.6-124.5C719.5,536.8,821.8,434.4,796,298.3L796,298.3z
	 M427.3,415.3c-41.5,48.4-133.7,132.5-133.7,132.5s-4,4-10.3,0.8c-2.5-1.9-3.6-3-3.6-3C264.9,530.9,167.4,444,145.2,413.8
	c-23.6-32.2-34.7-90-3-123.7c31.7-33.7,100.2-36.2,145.4,13.6c0,0,52.2-59.4,115.6-32.1C466.7,298.9,464.3,372,427.3,415.3
	L427.3,415.3z M633.1,431.2c-30.9,3.9-56.1,0.9-56.1,0.9V242.8h59c0,0,65.7,18.4,65.7,87.9C701.7,394.5,668.9,419.6,633.1,431.2
	L633.1,431.2z"/>
</svg>
