<?xml version="1.0" encoding="utf-8"?>
<!-- Generator: Adobe Illustrator 28.2.0, SVG Export Plug-In . SVG Version: 6.00 Build 0)  -->
<svg version="1.1" id="Layer_1" xmlns="http://www.w3.org/2000/svg" xmlns:xlink="http://www.w3.org/1999/xlink" x="0px" y="0px"
	 viewBox="0 0 40 20" style="enable-background:new 0 0 40 20;" xml:space="preserve">
<style type="text/css">
	.st0{fill:#3B82F6;}
	.st1{fill:none;stroke:#3B82F6;}
</style>
<path class="st0" d="M11.7,13h1.1v-1.9h0.6l1.3,1.9h1.3l-1.4-2.1c0.8-0.3,1.2-0.8,1.2-1.7c0-1.1-0.6-1.9-2-1.9h-2.2V13z M12.8,10.1
	V8.3h0.9c0.6,0,1,0.3,1,0.9c0,0.5-0.4,0.9-1,0.9H12.8z M16.5,13h1.2l0.4-1.1h2.2l0.4,1.1h1.2l-2.1-5.7h-1.1L16.5,13z M18.3,10.9
	l0.8-2.2h0l0.8,2.2H18.3z M22.5,13h1.1V9.5h0l1.4,2.4h0.7l1.4-2.4h0V13h1.1V7.3h-1.1l-1.7,3.2h0l-1.7-3.2h-1.1V13z"/>
<rect x="0.5" y="0.5" class="st1" width="39" height="19"/>
</svg>
