<?xml version="1.0" encoding="utf-8"?>
<!-- Generator: Adobe Illustrator 28.2.0, SVG Export Plug-In . SVG Version: 6.00 Build 0)  -->
<svg version="1.1" id="Layer_1" xmlns="http://www.w3.org/2000/svg" xmlns:xlink="http://www.w3.org/1999/xlink" x="0px" y="0px"
	 viewBox="0 0 30 30" style="enable-background:new 0 0 30 30;" xml:space="preserve">
<style type="text/css">
	.st0{fill:#3B82F6;}
</style>
<path class="st0" d="M29.7,9c0,0-0.3-2.1-1.2-3c-1.1-1.2-2.4-1.2-3-1.3C21.3,4.4,15,4.4,15,4.4h0c0,0-6.3,0-10.5,0.3
	C3.9,4.8,2.6,4.8,1.5,6C0.6,6.9,0.3,9,0.3,9S0,11.4,0,13.9v2.3C0,18.6,0.3,21,0.3,21s0.3,2.1,1.2,3c1.1,1.2,2.6,1.2,3.3,1.3
	C7.2,25.5,15,25.5,15,25.5s6.3,0,10.5-0.3c0.6-0.1,1.9-0.1,3-1.3c0.9-0.9,1.2-3,1.2-3s0.3-2.4,0.3-4.9v-2.3C30,11.4,29.7,9,29.7,9z
	 M11.9,18.9v-8.4l8.1,4.2L11.9,18.9z"/>
</svg>
